<svg xmlns="http://www.w3.org/2000/svg" viewBox="0 0 1920 1080"><defs><style>.cls-1{fill:#e3fbff;}.cls-2{fill:#ffce00;}.cls-3{fill:#ffe97d;}.cls-4{fill:#145199;}.cls-5{fill:#c0f3ff;}.cls-6{font-size:33.43px;fill:#bdc8d5;font-family:Arial-BoldMT, Arial;font-weight:700;}.cls-10,.cls-7,.cls-8,.cls-9{stroke:#000;stroke-linecap:round;stroke-linejoin:round;}.cls-7{stroke-width:0.72px;}.cls-8{stroke-width:0.39px;}.cls-9{stroke-width:0.6px;}.cls-10{stroke-width:0.57px;}</style></defs><title>abeille</title><g id="Calque_2" data-name="Calque 2"><rect class="cls-1" x="2" y="-3374" width="1920" height="4453"/></g><g id="Calque_1" data-name="Calque 1"><path class="cls-2" d="M1403.73,973.26c7.38,23.36-14.89,51.75-38.92,47-14.87-2.94-30.59-16-43-7.33-6,4.12-8.12,11.73-11.58,18.1-9.52,17.55-30.44,26.45-50.4,27s-39.39-5.72-58.35-12c-4.79-1.58-10-3.44-12.65-7.7s-.78-11.47,4.25-11.82c-26.08,13.88-54.09,25.23-83.52,27.73-16.76,1.43-34.34-.24-48.9-8.65s-25.38-24.63-23.86-41.37,18-31.74,34.47-28.62c-31.6-7.67-67.85,17.5-95.66.63-21.68-13.16-22.78-47.4-6.12-66.52s45-24.43,69.94-20c-7.07-33.34,18.73-69.89,52.51-74.39,24-3.21,48.85,7.73,72.36,1.76,19.11-4.86,33.89-20.07,52.19-27.44,37.29-15,85.11,11.59,92,51.21,26.53.29,53.25-8.28,79.24-3s50.09,34.62,36.33,57.29c-9.7,16-50,22.38-53,39.94C1368.21,951.27,1398.54,955.1,1403.73,973.26Z"/><path class="cls-3" d="M1153.06,956.62c-12.65-3.53-17-19.37-16.53-32.49.31-9.63,2.63-20.26,10.54-25.76,4.61-3.21,10.4-4.12,16-4.82,25.27-3.19,87.15-6.86,72.65,35-8,23-19.92,13.6-35.79,16.18C1186.05,946.94,1167,960.51,1153.06,956.62Z"/><path class="cls-2" d="M1649.12,825.11c3.62,11.43-7.28,25.33-19,23-7.27-1.44-15-7.8-21.06-3.58-2.92,2-4,5.74-5.66,8.86-4.67,8.58-14.9,12.94-24.67,13.23s-19.28-2.8-28.56-5.86c-2.34-.77-4.87-1.68-6.19-3.77s-.38-5.61,2.08-5.78c-12.76,6.79-26.47,12.34-40.87,13.57-8.2.7-16.8-.12-23.93-4.24s-12.42-12-11.67-20.24,8.78-15.53,16.87-14c-15.47-3.76-33.21,8.56-46.82.3-10.61-6.44-11.14-23.19-3-32.55s22-12,34.22-9.77c-3.46-16.31,9.17-34.2,25.7-36.4,11.76-1.57,23.91,3.78,35.41.86,9.35-2.38,16.59-9.82,25.54-13.43,18.25-7.35,41.65,5.68,45,25.06,13,.14,26.06-4,38.77-1.45s24.52,16.94,17.78,28c-4.75,7.83-24.46,10.95-25.94,19.54C1631.74,814.35,1646.58,816.23,1649.12,825.11Z"/><path class="cls-3" d="M1526.45,817c-6.19-1.73-8.3-9.48-8.09-15.9.16-4.71,1.29-9.91,5.16-12.6,2.26-1.57,5.09-2,7.82-2.36,12.37-1.57,42.65-3.36,35.56,17.11-3.91,11.28-9.75,6.65-17.52,7.91C1542.6,812.24,1533.3,818.88,1526.45,817Z"/><path class="cls-2" d="M888.12,1031.11c3.62,11.43-7.28,25.33-19,23-7.27-1.44-15-7.8-21.06-3.58-2.92,2-4,5.74-5.66,8.86-4.67,8.58-14.9,12.94-24.67,13.23s-19.28-2.8-28.56-5.86c-2.34-.77-4.87-1.68-6.19-3.77s-.38-5.61,2.08-5.78c-12.76,6.79-26.47,12.34-40.87,13.57-8.2.7-16.8-.12-23.93-4.24s-12.42-12-11.67-20.24,8.78-15.53,16.87-14c-15.47-3.76-33.21,8.56-46.82.3-10.61-6.44-11.14-23.19-3-32.55s22-12,34.22-9.77c-3.46-16.31,9.17-34.2,25.7-36.4,11.76-1.57,23.91,3.78,35.41.86,9.35-2.38,16.59-9.82,25.54-13.43,18.25-7.35,41.65,5.68,45,25.06,13,.14,26.06-4,38.77-1.45s24.52,16.94,17.78,28c-4.75,7.83-24.46,10.95-25.94,19.54C870.74,1020.35,885.58,1022.23,888.12,1031.11Z"/><path class="cls-3" d="M765.45,1023c-6.19-1.73-8.3-9.48-8.09-15.9.16-4.71,1.29-9.91,5.16-12.6,2.26-1.57,5.09-2,7.82-2.36,12.37-1.57,42.65-3.36,35.56,17.11-3.91,11.28-9.75,6.65-17.52,7.91C781.6,1018.24,772.3,1024.88,765.45,1023Z"/><path class="cls-2" d="M1787.44,1009.58c4.43,14-8.94,31.05-23.36,28.2-8.92-1.77-18.35-9.57-25.82-4.4-3.58,2.47-4.87,7-7,10.86-5.72,10.53-18.27,15.87-30.24,16.23s-23.64-3.44-35-7.19c-2.88-.94-6-2.06-7.59-4.62s-.47-6.88,2.54-7.09c-15.64,8.33-32.45,15.14-50.11,16.64-10.05.86-20.6-.14-29.34-5.19s-15.22-14.78-14.31-24.82,10.77-19,20.68-17.17c-19-4.61-40.71,10.49-57.39.37-13-7.89-13.67-28.44-3.67-39.91s27-14.66,42-12c-4.25-20,11.24-41.93,31.5-44.63,14.43-1.92,29.31,4.64,43.42,1.06,11.47-2.92,20.33-12,31.31-16.46,22.38-9,51.07,6.95,55.2,30.72,15.91.17,32-5,47.54-1.78s30.06,20.77,21.8,34.38c-5.82,9.59-30,13.43-31.81,24C1766.13,996.39,1784.33,998.68,1787.44,1009.58Z"/><path class="cls-3" d="M1637,999.59c-7.58-2.11-10.17-11.62-9.91-19.49.18-5.78,1.58-12.15,6.32-15.45,2.77-1.93,6.24-2.48,9.59-2.9,15.16-1.91,52.29-4.11,43.59,21-4.79,13.83-11.95,8.16-21.48,9.71C1656.83,993.79,1645.43,1001.93,1637,999.59Z"/><rect class="cls-4" x="-2" y="-3" width="1923" height="205"/><path class="cls-5" d="M774,149.59H526.17a42.8,42.8,0,1,1,0-85.59H774a42.8,42.8,0,0,1,0,85.59ZM526.17,68.78a38,38,0,1,0,0,76H774a38,38,0,0,0,0-76Z"/><path class="cls-3" d="M365.63,149.59H117.8a42.8,42.8,0,1,1,0-85.59H365.63a42.8,42.8,0,1,1,0,85.59ZM117.8,68.78a38,38,0,0,0,0,76H365.63a38,38,0,0,0,0-76Z"/><text class="cls-6" transform="translate(195.08 119.28)">Lorem </text><text class="cls-6" transform="translate(599 119.28)">Lorem </text><path class="cls-5" d="M1192,149.59H944.17a42.8,42.8,0,1,1,0-85.59H1192a42.8,42.8,0,0,1,0,85.59ZM944.17,68.78a38,38,0,1,0,0,76H1192a38,38,0,0,0,0-76Z"/><text class="cls-6" transform="translate(1017 119.28)">Lorem </text><path class="cls-5" d="M1094.17,623.71c3.91-5.1,1.32-15.59.1-20.79-1.37-5.58-3.69-11.1-7.8-15.12-5.12-5-12.35-7.09-19.25-9a7.33,7.33,0,0,0-3.89-.36,7.4,7.4,0,0,0-3.11,2.16c-3.44,3.42-7,7.12-8,11.87s1.11,10,4.38,13.82,7.59,6.49,11.85,9.13c8,5,16.86,14.23,27.3,11.91,9.94-2.21,18.59-15.28,22.23-23.8,1.77-4.14,3-8.72,2.08-13.14-1.39-6.89-8.14-12.1-15.17-12.32s-13.82,4.14-17.15,10.33"/><path class="cls-4" d="M1094.17,623.71a10.21,10.21,0,0,0,1.45-3.29,16.52,16.52,0,0,0,.43-3.57,35.31,35.31,0,0,0-.66-7.17,59,59,0,0,0-4.05-13.79,27.2,27.2,0,0,0-3.77-6,22.28,22.28,0,0,0-5.35-4.56c-4-2.5-8.64-3.93-13.27-5.19-2.34-.57-4.72-1.6-6.31-.42a17.36,17.36,0,0,0-2.52,2.29c-.85.85-1.67,1.71-2.46,2.6a21.14,21.14,0,0,0-3.8,5.77,12,12,0,0,0-.75,6.6,16.84,16.84,0,0,0,2.51,6.32,23.88,23.88,0,0,0,4.63,5.17,50.35,50.35,0,0,0,5.76,4.17l3.06,1.91c1,.66,2.07,1.34,3.08,2,4,2.82,7.74,5.83,11.95,7.9a20.57,20.57,0,0,0,6.56,2.08,14.36,14.36,0,0,0,6.69-.74,21.14,21.14,0,0,0,6-3.49,38.08,38.08,0,0,0,5-5,62,62,0,0,0,7.83-11.92,38.14,38.14,0,0,0,2.65-6.59,19.12,19.12,0,0,0,.78-6.91,14.76,14.76,0,0,0-7.39-11.21,16,16,0,0,0-6.63-2.22,16.75,16.75,0,0,0-7,.85,20.37,20.37,0,0,0-10.84,9,20.19,20.19,0,0,1,10.65-9.56,17.4,17.4,0,0,1,7.26-1.12,16.82,16.82,0,0,1,7.1,2.12,17.13,17.13,0,0,1,5.54,5,14.8,14.8,0,0,1,2.67,7,20.73,20.73,0,0,1-.67,7.45,39.75,39.75,0,0,1-2.62,6.92,58,58,0,0,1-7.9,12.4,39.46,39.46,0,0,1-5.26,5.24,23.36,23.36,0,0,1-6.48,3.85,16.66,16.66,0,0,1-7.6.89,22.69,22.69,0,0,1-7.23-2.22c-4.5-2.19-8.37-5.25-12.3-8-1-.69-2-1.35-3-2l-3.08-2a52.19,52.19,0,0,1-6-4.39c-3.77-3.21-6.93-7.6-7.74-12.74a14,14,0,0,1,.92-7.63,23,23,0,0,1,4.18-6.28c.82-.92,1.68-1.8,2.54-2.66a17.33,17.33,0,0,1,2.89-2.53,5.12,5.12,0,0,1,2-.72,6.71,6.71,0,0,1,2.07.11c1.3.27,2.4.65,3.58,1,4.65,1.37,9.37,2.93,13.55,5.63a23.55,23.55,0,0,1,5.55,4.94,27.63,27.63,0,0,1,3.8,6.34,41.18,41.18,0,0,1,2.26,7c.53,2.37,1,4.74,1.39,7.15a34.75,34.75,0,0,1,.42,7.28,17.68,17.68,0,0,1-.59,3.6A10.35,10.35,0,0,1,1094.17,623.71Z"/><path class="cls-2" d="M1127.58,636c4.93,6.85,6.32,16.76,1.53,23.71-5.39,7.84-16.27,9.49-25.76,8.92a91,91,0,0,1-58.15-26c-1.87-1.86-3.81-4.3-3.17-6.86.58-2.36,3.07-3.65,5.33-4.58C1070.06,621.83,1110.29,612,1127.58,636Z"/><path d="M1113.15,626.53c-1.29,3-2.54,5.92-3.61,8.89a88.2,88.2,0,0,0-2.74,9,92.14,92.14,0,0,0-1.8,9.25c-.44,3.13-.72,6.29-1,9.55a33.15,33.15,0,0,1-1.26-9.72,41.92,41.92,0,0,1,4.73-19A33.27,33.27,0,0,1,1113.15,626.53Z"/><path d="M1099.38,621.34a62.26,62.26,0,0,0-5.9,8.73,52.71,52.71,0,0,0-4,9.48,53.68,53.68,0,0,0-2.16,10.08,63.5,63.5,0,0,0-.22,10.53,28.32,28.32,0,0,1-2-10.65,35.37,35.37,0,0,1,6.56-20.64A28.47,28.47,0,0,1,1099.38,621.34Z"/><path d="M1086.09,624.51a52,52,0,0,0-5.75,6.61,42.82,42.82,0,0,0-4.26,7.38,44,44,0,0,0-2.75,8.06,54,54,0,0,0-1.2,8.69,21.84,21.84,0,0,1-1-9,27.49,27.49,0,0,1,7.51-16.54A21.68,21.68,0,0,1,1086.09,624.51Z"/><path d="M1066.27,630.76l-2.3,3.44c-.72,1.09-1.38,2.17-2,3.28s-1.21,2.23-1.77,3.4l-1.76,3.75a8.84,8.84,0,0,1-.41-4.38,12,12,0,0,1,1.43-4.19,12.23,12.23,0,0,1,2.85-3.39A8.87,8.87,0,0,1,1066.27,630.76Z"/><path d="M1121.62,663.47a6.41,6.41,0,0,1-3.52-1.07,8.65,8.65,0,0,1-3.94-6.2,6.45,6.45,0,0,1,.53-3.64,12.57,12.57,0,0,0,2,6.41A12.42,12.42,0,0,0,1121.62,663.47Z"/><path class="cls-7" d="M1123.76,639.64a1.75,1.75,0,0,1,1.27,1.17,2.24,2.24,0,0,1-.21,1.75.56.56,0,0,1-.2.23.58.58,0,0,1-.32,0,3.63,3.63,0,0,1-1.25-.38,1.3,1.3,0,0,1-.62-.56,1.06,1.06,0,0,1-.08-.43,1.81,1.81,0,0,1,1.2-1.69"/><path class="cls-5" d="M1611.51,680.38c2.13-2.78.72-8.49,0-11.32a16.86,16.86,0,0,0-4.24-8.23c-2.79-2.73-6.72-3.86-10.48-4.9a4,4,0,0,0-2.12-.2,4,4,0,0,0-1.69,1.18c-1.87,1.86-3.83,3.87-4.36,6.46a9.11,9.11,0,0,0,2.39,7.52,26.83,26.83,0,0,0,6.45,5c4.37,2.71,9.17,7.75,14.86,6.49,5.41-1.2,10.12-8.32,12.1-13a12.28,12.28,0,0,0,1.14-7.15,8.84,8.84,0,0,0-8.26-6.71,10.58,10.58,0,0,0-9.34,5.62"/><path class="cls-4" d="M1611.51,680.38a6.68,6.68,0,0,0,1-3.74,18.27,18.27,0,0,0-.36-3.9,32.13,32.13,0,0,0-2.2-7.51,12.86,12.86,0,0,0-5-5.75,26.91,26.91,0,0,0-7.23-2.82c-1.28-.31-2.57-.88-3.43-.23a9.08,9.08,0,0,0-1.38,1.24c-.46.47-.91.94-1.33,1.42a11.18,11.18,0,0,0-2.07,3.14,6.49,6.49,0,0,0-.41,3.59,10.68,10.68,0,0,0,3.89,6.26,27.48,27.48,0,0,0,3.13,2.27c1.08.69,2.25,1.37,3.34,2.15a49.11,49.11,0,0,0,6.51,4.3,11,11,0,0,0,3.57,1.13,7.89,7.89,0,0,0,3.64-.4,15.44,15.44,0,0,0,6-4.6,33.81,33.81,0,0,0,4.26-6.49,14.18,14.18,0,0,0,1.87-7.35,8,8,0,0,0-4-6.1,8.69,8.69,0,0,0-3.6-1.21,9.37,9.37,0,0,0-3.82.46,11.13,11.13,0,0,0-5.9,4.91,11,11,0,0,1,5.8-5.2,9.47,9.47,0,0,1,4-.61,9.2,9.2,0,0,1,3.86,1.15,8.7,8.7,0,0,1,4.48,6.53,15,15,0,0,1-1.8,7.82,31.61,31.61,0,0,1-4.29,6.75,16.57,16.57,0,0,1-6.4,4.95,9.11,9.11,0,0,1-4.14.48,12.31,12.31,0,0,1-3.93-1.21,49.68,49.68,0,0,1-6.7-4.35,78.22,78.22,0,0,1-6.53-4.53,11.79,11.79,0,0,1-4.21-6.94,7.68,7.68,0,0,1,.5-4.16,12.34,12.34,0,0,1,2.28-3.41c.45-.51.91-1,1.38-1.45a9.8,9.8,0,0,1,1.57-1.38,2.73,2.73,0,0,1,1.12-.39,3.5,3.5,0,0,1,1.13.06c.7.15,1.3.35,2,.53a27.74,27.74,0,0,1,7.37,3.07,13.38,13.38,0,0,1,5.09,6.14,32.25,32.25,0,0,1,2,7.69,19.43,19.43,0,0,1,.23,4A6.75,6.75,0,0,1,1611.51,680.38Z"/><path class="cls-2" d="M1629.7,687.05c2.68,3.73,3.44,9.12.83,12.91-2.93,4.26-8.85,5.17-14,4.86a49.59,49.59,0,0,1-31.66-14.18c-1-1-2.07-2.34-1.73-3.73s1.68-2,2.91-2.49C1598.38,679.36,1620.29,674,1629.7,687.05Z"/><path d="M1621.84,681.91c-.7,1.63-1.38,3.23-2,4.84a47.83,47.83,0,0,0-1.5,4.91,49.84,49.84,0,0,0-1,5c-.23,1.7-.39,3.42-.53,5.2a18.53,18.53,0,0,1-.69-5.29,23.45,23.45,0,0,1,.68-5.33,23.79,23.79,0,0,1,1.9-5A18.74,18.74,0,0,1,1621.84,681.91Z"/><path d="M1614.35,679.09a33.87,33.87,0,0,0-3.21,4.75,27.94,27.94,0,0,0-2.21,5.16,28.23,28.23,0,0,0-1.17,5.49,34.07,34.07,0,0,0-.13,5.73,15.64,15.64,0,0,1-1.09-5.8,18.82,18.82,0,0,1,.9-5.9,19.17,19.17,0,0,1,2.67-5.33A15.32,15.32,0,0,1,1614.35,679.09Z"/><path d="M1607.11,680.81a27.64,27.64,0,0,0-3.13,3.6,23.68,23.68,0,0,0-3.81,8.41,27.67,27.67,0,0,0-.66,4.72,11.79,11.79,0,0,1-.55-4.91,14.94,14.94,0,0,1,4.09-9A11.61,11.61,0,0,1,1607.11,680.81Z"/><path d="M1596.32,684.21l-1.26,1.87c-.38.6-.74,1.19-1.08,1.79s-.65,1.22-1,1.85l-1,2a4.6,4.6,0,0,1-.22-2.38,6.18,6.18,0,0,1,.78-2.28,6.39,6.39,0,0,1,1.55-1.84A4.77,4.77,0,0,1,1596.32,684.21Z"/><path d="M1626.45,702a4.13,4.13,0,0,1-3.36-2,4.59,4.59,0,0,1-.7-1.93,3.6,3.6,0,0,1,.29-2,6.88,6.88,0,0,0,3.77,5.94Z"/><path class="cls-8" d="M1627.62,689.05a.93.93,0,0,1,.69.64,1.22,1.22,0,0,1-.11.95.26.26,0,0,1-.11.12.28.28,0,0,1-.18,0,2.07,2.07,0,0,1-.68-.21.65.65,0,0,1-.33-.3.52.52,0,0,1-.05-.24,1,1,0,0,1,.65-.92"/><path class="cls-5" d="M793.93,854.24c3.28-4.28,1.11-13.08.09-17.45-1.15-4.68-3.1-9.31-6.54-12.68-4.3-4.2-10.36-6-16.16-7.56a4.7,4.7,0,0,0-5.87,1.52c-2.88,2.87-5.9,6-6.71,9.95s.93,8.42,3.67,11.6,6.38,5.45,10,7.66c6.74,4.18,14.14,12,22.9,10,8.35-1.85,15.6-12.83,18.65-20,1.49-3.48,2.5-7.32,1.75-11-1.17-5.78-6.83-10.15-12.73-10.34s-11.6,3.48-14.39,8.67"/><path class="cls-4" d="M793.93,854.24a10.16,10.16,0,0,0,1.58-5.76,28.92,28.92,0,0,0-.55-6,49.1,49.1,0,0,0-3.4-11.57,22.33,22.33,0,0,0-3.16-5,18.32,18.32,0,0,0-4.49-3.83,41.34,41.34,0,0,0-11.13-4.36c-2-.48-4-1.34-5.3-.35a14.62,14.62,0,0,0-2.11,1.92c-.71.72-1.41,1.44-2.06,2.18a17.59,17.59,0,0,0-3.19,4.84,10,10,0,0,0-.63,5.54,13.89,13.89,0,0,0,2.11,5.3,20,20,0,0,0,3.88,4.34,42.51,42.51,0,0,0,4.83,3.5l2.57,1.6c.88.56,1.74,1.13,2.58,1.72,3.33,2.36,6.5,4.88,10,6.63a17.45,17.45,0,0,0,5.5,1.74,12.21,12.21,0,0,0,5.62-.62,17.64,17.64,0,0,0,5-2.93,31.36,31.36,0,0,0,4.23-4.16,52,52,0,0,0,6.57-10c1.78-3.55,3.2-7.43,2.88-11.33a12.36,12.36,0,0,0-6.2-9.4,13.26,13.26,0,0,0-5.56-1.87,14.18,14.18,0,0,0-5.88.71,17.11,17.11,0,0,0-9.1,7.57,17,17,0,0,1,8.94-8,14.67,14.67,0,0,1,6.09-.94,14,14,0,0,1,5.95,1.78,13.36,13.36,0,0,1,6.9,10.05,17.49,17.49,0,0,1-.57,6.25,33.58,33.58,0,0,1-2.2,5.81,48.87,48.87,0,0,1-6.62,10.4,33.41,33.41,0,0,1-4.42,4.4,19.21,19.21,0,0,1-5.44,3.23,14,14,0,0,1-6.37.75,19.14,19.14,0,0,1-6.07-1.87c-3.78-1.84-7-4.4-10.31-6.71-.82-.57-1.65-1.14-2.49-1.67l-2.58-1.64a43.9,43.9,0,0,1-5-3.67,18.19,18.19,0,0,1-6.49-10.7,11.69,11.69,0,0,1,.77-6.4,19.05,19.05,0,0,1,3.51-5.26c.69-.78,1.41-1.52,2.13-2.24a14.57,14.57,0,0,1,2.42-2.12,4.43,4.43,0,0,1,1.72-.61,5.54,5.54,0,0,1,1.74.1c1.09.23,2,.54,3,.82a42.65,42.65,0,0,1,11.38,4.73,19.5,19.5,0,0,1,4.65,4.14,23.56,23.56,0,0,1,3.19,5.31,50.25,50.25,0,0,1,3.06,11.86,29,29,0,0,1,.35,6.11,14.1,14.1,0,0,1-.49,3A8.58,8.58,0,0,1,793.93,854.24Z"/><path class="cls-2" d="M822,864.53c4.14,5.74,5.3,14.05,1.28,19.89-4.52,6.57-13.64,8-21.61,7.49a76.41,76.41,0,0,1-48.79-21.85c-1.57-1.56-3.19-3.6-2.66-5.75.49-2,2.58-3.07,4.47-3.84C773.71,852.67,807.46,844.42,822,864.53Z"/><path d="M809.86,856.6c-1.08,2.52-2.13,5-3,7.47A76.66,76.66,0,0,0,803,879.39c-.37,2.63-.6,5.28-.82,8a28,28,0,0,1-1.06-8.15,35.51,35.51,0,0,1,4-15.94A28.24,28.24,0,0,1,809.86,856.6Z"/><path d="M798.31,852.25a52.31,52.31,0,0,0-4.95,7.32,43.23,43.23,0,0,0-3.4,8,44,44,0,0,0-1.81,8.45,53,53,0,0,0-.19,8.84,24,24,0,0,1-1.69-8.93,29.28,29.28,0,0,1,1.39-9.09,29.65,29.65,0,0,1,4.11-8.23A24,24,0,0,1,798.31,852.25Z"/><path d="M787.15,854.91a43.74,43.74,0,0,0-4.82,5.55,36,36,0,0,0-3.57,6.19,36.66,36.66,0,0,0-2.31,6.76,44,44,0,0,0-1,7.29,18.13,18.13,0,0,1-.86-7.58,23,23,0,0,1,6.3-13.87A18.33,18.33,0,0,1,787.15,854.91Z"/><path d="M770.53,860.15,768.6,863c-.6.91-1.16,1.82-1.68,2.75s-1,1.87-1.48,2.86L764,871.79a7.44,7.44,0,0,1-.35-3.68,10.2,10.2,0,0,1,3.59-6.35A7.4,7.4,0,0,1,770.53,860.15Z"/><path d="M817,887.6a5.38,5.38,0,0,1-3-.9,7.24,7.24,0,0,1-3.3-5.2,5.33,5.33,0,0,1,.45-3.06,11,11,0,0,0,.47,2.87,9.91,9.91,0,0,0,1.17,2.51,9.79,9.79,0,0,0,1.78,2.13A10.66,10.66,0,0,0,817,887.6Z"/><path class="cls-9" d="M818.77,867.6a1.49,1.49,0,0,1,1.06,1,1.91,1.91,0,0,1-.17,1.46.56.56,0,0,1-.17.2.5.5,0,0,1-.27,0,2.92,2.92,0,0,1-1.05-.32,1.08,1.08,0,0,1-.52-.47.86.86,0,0,1-.07-.36,1.5,1.5,0,0,1,1-1.41"/><path class="cls-5" d="M1315,730.77c-3.09-4-1-12.34-.08-16.47,1.08-4.42,2.92-8.79,6.18-12,4.06-4,9.78-5.62,15.25-7.13a5.92,5.92,0,0,1,3.08-.29,6,6,0,0,1,2.46,1.72c2.72,2.7,5.57,5.64,6.34,9.4s-.88,7.94-3.47,10.94-6,5.14-9.39,7.23c-6.36,3.95-13.35,11.28-21.62,9.44-7.88-1.75-14.72-12.11-17.61-18.85-1.4-3.28-2.35-6.91-1.65-10.41,1.11-5.45,6.46-9.58,12-9.76a15.39,15.39,0,0,1,13.59,8.19"/><path class="cls-4" d="M1315,730.77a9.75,9.75,0,0,1-1.74-5.42,27.07,27.07,0,0,1,.33-5.76,47.5,47.5,0,0,1,2.89-11.19,21.51,21.51,0,0,1,3-5,18.56,18.56,0,0,1,4.39-3.91,40.46,40.46,0,0,1,10.74-4.47c.93-.26,1.81-.56,2.83-.77a5.23,5.23,0,0,1,1.64-.09,4,4,0,0,1,1.63.58,13.72,13.72,0,0,1,2.28,2c.69.69,1.36,1.38,2,2.11a18.05,18.05,0,0,1,3.31,5,11.08,11.08,0,0,1,.72,6.05,17.09,17.09,0,0,1-6.12,10.09,41.14,41.14,0,0,1-4.72,3.47l-2.44,1.55c-.79.5-1.57,1-2.34,1.58a72.7,72.7,0,0,1-9.74,6.33,17.85,17.85,0,0,1-5.73,1.76,13.22,13.22,0,0,1-6-.7,18.33,18.33,0,0,1-5.14-3.06,31.38,31.38,0,0,1-4.17-4.14,46.36,46.36,0,0,1-6.25-9.83,30.6,30.6,0,0,1-2.07-5.48,16.22,16.22,0,0,1-.54-5.89,12.63,12.63,0,0,1,6.51-9.5,13.28,13.28,0,0,1,5.62-1.67,13.57,13.57,0,0,1,5.75.89,16,16,0,0,1,8.44,7.57,16.18,16.18,0,0,0-8.59-7.15,13.29,13.29,0,0,0-5.55-.67,12.54,12.54,0,0,0-5.25,1.76,11.64,11.64,0,0,0-5.85,8.87c-.31,3.69,1,7.35,2.71,10.7a49.46,49.46,0,0,0,6.2,9.44,29.54,29.54,0,0,0,4,3.92,16.49,16.49,0,0,0,4.72,2.77,11.65,11.65,0,0,0,5.3.59,16.29,16.29,0,0,0,5.19-1.65c3.34-1.64,6.33-4,9.47-6.26.8-.55,1.61-1.09,2.44-1.61l2.43-1.52a40.63,40.63,0,0,0,4.55-3.3,18.77,18.77,0,0,0,3.67-4.1,13.2,13.2,0,0,0,2-5,9.55,9.55,0,0,0-.59-5.23,16.49,16.49,0,0,0-3-4.57c-.62-.7-1.27-1.38-1.94-2.06a14.16,14.16,0,0,0-2-1.81c-1.26-.94-3.14-.12-5,.33a39.51,39.51,0,0,0-10.52,4.11,17.69,17.69,0,0,0-4.23,3.62,21.62,21.62,0,0,0-3,4.75,46.72,46.72,0,0,0-3.21,10.92,28.52,28.52,0,0,0-.52,5.68A9.72,9.72,0,0,0,1315,730.77Z"/><path class="cls-2" d="M1288.5,740.48c-3.91,5.42-5,13.27-1.21,18.78,4.27,6.2,12.88,7.52,20.4,7.07a72.2,72.2,0,0,0,46.06-20.62c1.48-1.48,3-3.41,2.51-5.43s-2.44-2.9-4.22-3.63C1334.06,729.29,1302.19,721.5,1288.5,740.48Z"/><path d="M1299.93,733a26.79,26.79,0,0,1,4.48,6.33,33.42,33.42,0,0,1,2.76,7.31,33.78,33.78,0,0,1,1,7.74,26.32,26.32,0,0,1-1,7.7c-.21-2.58-.43-5.09-.77-7.57a71.7,71.7,0,0,0-1.43-7.32,69,69,0,0,0-2.17-7.14C1301.94,737.7,1301,735.38,1299.93,733Z"/><path d="M1310.83,728.89a22.46,22.46,0,0,1,6.17,6,27.83,27.83,0,0,1,5.2,16.35,22.56,22.56,0,0,1-1.6,8.43,49.15,49.15,0,0,0-.18-8.34,42,42,0,0,0-4.91-15.49A49.2,49.2,0,0,0,1310.83,728.89Z"/><path d="M1321.36,731.4a17.1,17.1,0,0,1,5.91,4.1,21.83,21.83,0,0,1,4.09,6,21.52,21.52,0,0,1,1.86,7.06,17.1,17.1,0,0,1-.81,7.15,40.16,40.16,0,0,0-1-6.88,34.47,34.47,0,0,0-5.54-12.23A41.93,41.93,0,0,0,1321.36,731.4Z"/><path d="M1337.06,736.35a7.14,7.14,0,0,1,3.14,1.52,9.68,9.68,0,0,1,2.25,2.68,9.41,9.41,0,0,1,1.13,3.32,7,7,0,0,1-.32,3.47l-1.4-3c-.44-.93-.91-1.82-1.4-2.7s-1-1.73-1.58-2.59Z"/><path d="M1293.22,762.26a9.88,9.88,0,0,0,3.94-3.56,10.11,10.11,0,0,0,1.1-2.38,10.66,10.66,0,0,0,.45-2.7,5.06,5.06,0,0,1,.42,2.88,6.75,6.75,0,0,1-1,2.81,7,7,0,0,1-2.11,2.11A5.12,5.12,0,0,1,1293.22,762.26Z"/><path class="cls-10" d="M1291.52,743.39a1.37,1.37,0,0,0-1,.92,1.78,1.78,0,0,0,.16,1.39.46.46,0,0,0,.16.18.46.46,0,0,0,.26,0,2.91,2.91,0,0,0,1-.3,1.13,1.13,0,0,0,.49-.45,1,1,0,0,0,.06-.34,1.43,1.43,0,0,0-1-1.34"/><path class="cls-5" d="M1796,799.77c-3.09-4-1-12.34-.08-16.47,1.08-4.42,2.92-8.79,6.18-12,4.06-4,9.78-5.62,15.25-7.13a5.92,5.92,0,0,1,3.08-.29,6,6,0,0,1,2.46,1.72c2.72,2.7,5.57,5.64,6.34,9.4s-.88,7.94-3.47,10.94-6,5.14-9.39,7.23c-6.36,3.95-13.35,11.28-21.62,9.44-7.88-1.75-14.72-12.11-17.61-18.85-1.4-3.28-2.35-6.91-1.65-10.41,1.11-5.45,6.46-9.58,12-9.76a15.39,15.39,0,0,1,13.59,8.19"/><path class="cls-4" d="M1796,799.77a9.75,9.75,0,0,1-1.74-5.42,27.07,27.07,0,0,1,.33-5.76,47.5,47.5,0,0,1,2.89-11.19,21.51,21.51,0,0,1,3-5,18.56,18.56,0,0,1,4.39-3.91,40.46,40.46,0,0,1,10.74-4.47c.93-.26,1.81-.56,2.83-.77a5.23,5.23,0,0,1,1.64-.09,4,4,0,0,1,1.63.58,13.72,13.72,0,0,1,2.28,2c.69.69,1.36,1.38,2,2.11a18.05,18.05,0,0,1,3.31,5,11.08,11.08,0,0,1,.72,6.05,17.09,17.09,0,0,1-6.12,10.09,41.14,41.14,0,0,1-4.72,3.47l-2.44,1.55c-.79.5-1.57,1-2.34,1.58a72.7,72.7,0,0,1-9.74,6.33,17.85,17.85,0,0,1-5.73,1.76,13.22,13.22,0,0,1-6-.7,18.33,18.33,0,0,1-5.14-3.06,31.38,31.38,0,0,1-4.17-4.14,46.36,46.36,0,0,1-6.25-9.83,30.6,30.6,0,0,1-2.07-5.48,16.22,16.22,0,0,1-.54-5.89,12.63,12.63,0,0,1,6.51-9.5,13.28,13.28,0,0,1,5.62-1.67,13.57,13.57,0,0,1,5.75.89,16,16,0,0,1,8.44,7.57,16.18,16.18,0,0,0-8.59-7.15,13.29,13.29,0,0,0-5.55-.67,12.54,12.54,0,0,0-5.25,1.76,11.64,11.64,0,0,0-5.85,8.87c-.31,3.69,1,7.35,2.71,10.7a49.46,49.46,0,0,0,6.2,9.44,29.54,29.54,0,0,0,4,3.92,16.49,16.49,0,0,0,4.72,2.77,11.65,11.65,0,0,0,5.3.59,16.29,16.29,0,0,0,5.19-1.65c3.34-1.64,6.33-4,9.47-6.26.8-.55,1.61-1.09,2.44-1.61l2.43-1.52a40.63,40.63,0,0,0,4.55-3.3,18.77,18.77,0,0,0,3.67-4.1,13.2,13.2,0,0,0,2-5,9.55,9.55,0,0,0-.59-5.23,16.49,16.49,0,0,0-3-4.57c-.62-.7-1.27-1.38-1.94-2.06a14.16,14.16,0,0,0-2-1.81c-1.26-.94-3.14-.12-5,.33a39.51,39.51,0,0,0-10.52,4.11,17.69,17.69,0,0,0-4.23,3.62,21.62,21.62,0,0,0-3,4.75,46.72,46.72,0,0,0-3.21,10.92,28.52,28.52,0,0,0-.52,5.68A9.72,9.72,0,0,0,1796,799.77Z"/><path class="cls-2" d="M1769.5,809.48c-3.91,5.42-5,13.27-1.21,18.78,4.27,6.2,12.88,7.52,20.4,7.07a72.2,72.2,0,0,0,46.06-20.62c1.48-1.48,3-3.41,2.51-5.43s-2.44-2.9-4.22-3.63C1815.06,798.29,1783.19,790.5,1769.5,809.48Z"/><path d="M1780.93,802a26.79,26.79,0,0,1,4.48,6.33,33.42,33.42,0,0,1,2.76,7.31,33.78,33.78,0,0,1,1,7.74,26.32,26.32,0,0,1-1,7.7c-.21-2.58-.43-5.09-.77-7.57a71.7,71.7,0,0,0-1.43-7.32,69,69,0,0,0-2.17-7.14C1782.94,806.7,1782,804.38,1780.93,802Z"/><path d="M1791.83,797.89a22.46,22.46,0,0,1,6.17,6,27.83,27.83,0,0,1,5.2,16.35,22.56,22.56,0,0,1-1.6,8.43,49.15,49.15,0,0,0-.18-8.34,42,42,0,0,0-4.91-15.49A49.2,49.2,0,0,0,1791.83,797.89Z"/><path d="M1802.36,800.4a17.1,17.1,0,0,1,5.91,4.1,21.83,21.83,0,0,1,4.09,6,21.52,21.52,0,0,1,1.86,7.06,17.1,17.1,0,0,1-.81,7.15,40.16,40.16,0,0,0-1-6.88,34.47,34.47,0,0,0-5.54-12.23A41.93,41.93,0,0,0,1802.36,800.4Z"/><path d="M1818.06,805.35a7.14,7.14,0,0,1,3.14,1.52,9.68,9.68,0,0,1,2.25,2.68,9.41,9.41,0,0,1,1.13,3.32,7,7,0,0,1-.32,3.47l-1.4-3c-.44-.93-.91-1.82-1.4-2.7s-1-1.73-1.58-2.59Z"/><path d="M1774.22,831.26a9.88,9.88,0,0,0,3.94-3.56,10.11,10.11,0,0,0,1.1-2.38,10.66,10.66,0,0,0,.45-2.7,5.06,5.06,0,0,1,.42,2.88,6.75,6.75,0,0,1-1,2.81,7,7,0,0,1-2.11,2.11A5.12,5.12,0,0,1,1774.22,831.26Z"/><path class="cls-10" d="M1772.52,812.39a1.37,1.37,0,0,0-1,.92,1.78,1.78,0,0,0,.16,1.39.46.46,0,0,0,.16.18.46.46,0,0,0,.26,0,2.91,2.91,0,0,0,1-.3,1.13,1.13,0,0,0,.49-.45,1,1,0,0,0,.06-.34,1.43,1.43,0,0,0-1-1.34"/><circle class="cls-3" cx="1230" cy="860" r="8"/><circle class="cls-3" cx="1173" cy="852" r="3"/><circle class="cls-3" cx="1122" cy="881" r="7"/><circle class="cls-3" cx="1115" cy="831" r="7"/><circle class="cls-3" cx="1230" cy="798" r="3"/><circle class="cls-3" cx="1201" cy="823" r="12"/><circle class="cls-3" cx="807" cy="980" r="4"/><circle class="cls-3" cx="747" cy="991" r="2"/><circle class="cls-3" cx="745" cy="962" r="5"/><circle class="cls-3" cx="771" cy="976" r="2"/><circle class="cls-3" cx="782" cy="957" r="7"/><circle class="cls-3" cx="807" cy="957" r="3"/><circle class="cls-3" cx="1520" cy="777" r="3"/><circle class="cls-3" cx="1535" cy="758" r="2"/><circle class="cls-3" cx="1559" cy="766" r="6"/><circle class="cls-3" cx="1581" cy="748" r="3"/><circle class="cls-3" cx="1583" cy="772" r="5"/><circle class="cls-3" cx="1703" cy="967" r="2"/><circle class="cls-3" cx="1701" cy="943" r="8"/><circle class="cls-3" cx="1658" cy="943" r="3"/><circle class="cls-3" cx="1617" cy="933" r="7"/><circle class="cls-3" cx="1634" cy="951" r="2"/><circle class="cls-3" cx="1673" cy="917" r="5"/><circle class="cls-2" cx="1180" cy="777" r="3"/><circle class="cls-2" cx="1141" cy="750" r="4"/><circle class="cls-2" cx="1125" cy="700" r="7"/><circle class="cls-2" cx="1173" cy="731" r="3"/><circle class="cls-2" cx="1222" cy="743" r="3"/><circle class="cls-2" cx="1198" cy="758" r="8"/><circle class="cls-2" cx="1262" cy="762" r="2"/><circle class="cls-2" cx="1260" cy="736" r="4"/><circle class="cls-2" cx="1132" cy="800" r="4"/><circle class="cls-2" cx="1617" cy="743" r="2"/><circle class="cls-2" cx="1584" cy="718" r="3"/><circle class="cls-2" cx="1614" cy="721" r="3"/><circle class="cls-2" cx="1535" cy="733" r="2"/><circle class="cls-2" cx="1531" cy="705" r="6"/><circle class="cls-2" cx="1735" cy="917" r="3"/><circle class="cls-2" cx="1717" cy="880" r="5"/><circle class="cls-2" cx="1747" cy="875" r="3"/><circle class="cls-2" cx="1735" cy="852" r="3"/><circle class="cls-2" cx="1759" cy="851" r="1"/><circle class="cls-2" cx="1778" cy="868" r="5"/><circle class="cls-2" cx="1766" cy="903" r="1"/><circle class="cls-2" cx="1760" cy="889" r="1"/><circle class="cls-2" cx="750" cy="932" r="2"/><circle class="cls-2" cx="767" cy="907" r="4"/><circle class="cls-2" cx="775" cy="936" r="2"/><circle class="cls-2" cx="802" cy="903" r="4"/><circle class="cls-2" cx="794" cy="916" r="1"/></g></svg>